<svg xmlns="http://www.w3.org/2000/svg" xmlns:xlink="http://www.w3.org/1999/xlink" width="50" zoomAndPan="magnify" viewBox="0 0 37.5 37.499999" height="50" preserveAspectRatio="xMidYMid meet" version="1.0"><defs><clipPath id="68670786ac"><path d="M 19 0 L 37.007812 0 L 37.007812 18 L 19 18 Z M 19 0 " clip-rule="nonzero"/></clipPath><clipPath id="02c30026a6"><path d="M 0 19 L 18 19 L 18 37.007812 L 0 37.007812 Z M 0 19 " clip-rule="nonzero"/></clipPath><clipPath id="fe41bd25c8"><path d="M 19 19 L 37.007812 19 L 37.007812 37.007812 L 19 37.007812 Z M 19 19 " clip-rule="nonzero"/></clipPath></defs><path fill="#51707a" d="M 13.125 17.46875 L 4.539062 17.46875 C 2.035156 17.46875 0 15.4375 0 12.945312 L 0 4.386719 C 0 1.894531 2.035156 -0.136719 4.539062 -0.136719 L 13.125 -0.136719 C 15.628906 -0.136719 17.664062 1.894531 17.664062 4.386719 L 17.664062 12.945312 C 17.664062 15.4375 15.628906 17.46875 13.125 17.46875 Z M 13.125 17.46875 " fill-opacity="1" fill-rule="nonzero"/><g clip-path="url(#68670786ac)"><path fill="#51707a" d="M 32.960938 17.46875 L 24.375 17.46875 C 21.871094 17.46875 19.835938 15.4375 19.835938 12.945312 L 19.835938 4.386719 C 19.835938 1.894531 21.871094 -0.136719 24.375 -0.136719 L 32.960938 -0.136719 C 35.464844 -0.136719 37.5 1.894531 37.5 4.386719 L 37.5 12.945312 C 37.5 15.4375 35.464844 17.46875 32.960938 17.46875 Z M 32.960938 17.46875 " fill-opacity="1" fill-rule="nonzero"/></g><g clip-path="url(#02c30026a6)"><path fill="#51707a" d="M 13.125 37.355469 L 4.539062 37.355469 C 2.035156 37.355469 0 35.328125 0 32.832031 L 0 24.277344 C 0 21.78125 2.035156 19.753906 4.539062 19.753906 L 13.125 19.753906 C 15.628906 19.753906 17.664062 21.78125 17.664062 24.277344 L 17.664062 32.832031 C 17.664062 35.328125 15.628906 37.355469 13.125 37.355469 Z M 13.125 37.355469 " fill-opacity="1" fill-rule="nonzero"/></g><g clip-path="url(#fe41bd25c8)"><path fill="#51707a" d="M 32.960938 37.355469 L 24.375 37.355469 C 21.871094 37.355469 19.835938 35.328125 19.835938 32.832031 L 19.835938 24.277344 C 19.835938 21.78125 21.871094 19.753906 24.375 19.753906 L 32.960938 19.753906 C 35.464844 19.753906 37.5 21.78125 37.5 24.277344 L 37.5 32.832031 C 37.5 35.328125 35.464844 37.355469 32.960938 37.355469 Z M 32.960938 37.355469 " fill-opacity="1" fill-rule="nonzero"/></g><path fill="#2e2e2e" d="M 11.542969 7.769531 L 9.765625 7.753906 L 9.785156 5.984375 C 9.789062 5.472656 9.378906 5.058594 8.871094 5.050781 C 8.359375 5.046875 7.941406 5.453125 7.933594 5.964844 L 7.917969 7.734375 L 6.140625 7.714844 C 6.136719 7.714844 6.132812 7.714844 6.128906 7.714844 C 5.621094 7.71875 5.210938 8.125 5.207031 8.628906 C 5.199219 9.136719 5.609375 9.554688 6.121094 9.5625 L 7.898438 9.578125 L 7.878906 11.347656 C 7.875 11.859375 8.285156 12.273438 8.796875 12.28125 C 8.800781 12.28125 8.804688 12.28125 8.808594 12.28125 C 9.3125 12.277344 9.726562 11.871094 9.730469 11.367188 L 9.75 9.597656 L 11.523438 9.617188 C 11.527344 9.617188 11.53125 9.617188 11.539062 9.617188 C 12.042969 9.613281 12.453125 9.207031 12.460938 8.703125 C 12.464844 8.195312 12.054688 7.777344 11.542969 7.769531 Z M 11.542969 7.769531 " fill-opacity="1" fill-rule="nonzero"/><path fill="#2e2e2e" d="M 10.140625 28.558594 L 11.398438 27.308594 C 11.761719 26.949219 11.761719 26.363281 11.402344 26.003906 C 11.039062 25.644531 10.453125 25.640625 10.09375 26 L 8.835938 27.25 L 7.582031 25.996094 C 7.578125 25.992188 7.574219 25.992188 7.570312 25.988281 C 7.210938 25.636719 6.632812 25.636719 6.273438 25.996094 C 5.910156 26.355469 5.910156 26.9375 6.269531 27.300781 L 7.523438 28.554688 L 6.265625 29.800781 C 5.902344 30.160156 5.902344 30.746094 6.261719 31.105469 C 6.265625 31.109375 6.269531 31.113281 6.273438 31.117188 C 6.632812 31.46875 7.214844 31.464844 7.574219 31.109375 L 8.832031 29.859375 L 10.082031 31.113281 C 10.085938 31.117188 10.089844 31.121094 10.09375 31.121094 C 10.453125 31.472656 11.035156 31.472656 11.394531 31.117188 C 11.753906 30.753906 11.753906 30.171875 11.394531 29.8125 Z M 10.140625 28.558594 " fill-opacity="1" fill-rule="nonzero"/><path fill="#2e2e2e" d="M 31.109375 9.582031 C 31.105469 9.582031 31.101562 9.582031 31.097656 9.582031 L 25.695312 9.574219 C 25.183594 9.574219 24.769531 9.160156 24.769531 8.652344 C 24.769531 8.144531 25.179688 7.734375 25.683594 7.730469 C 25.6875 7.730469 25.691406 7.730469 25.695312 7.730469 L 31.101562 7.738281 C 31.609375 7.738281 32.023438 8.152344 32.023438 8.664062 C 32.023438 9.167969 31.613281 9.578125 31.109375 9.582031 Z M 31.109375 9.582031 " fill-opacity="1" fill-rule="nonzero"/><path fill="#2e2e2e" d="M 31.117188 29.359375 C 31.113281 29.359375 31.109375 29.359375 31.105469 29.359375 L 26.230469 29.34375 C 25.765625 29.34375 25.394531 28.929688 25.394531 28.417969 C 25.394531 27.914062 25.761719 27.503906 26.21875 27.5 C 26.222656 27.5 26.226562 27.5 26.230469 27.5 L 31.105469 27.515625 C 31.566406 27.515625 31.941406 27.929688 31.941406 28.441406 C 31.941406 28.945312 31.574219 29.355469 31.117188 29.359375 Z M 31.117188 29.359375 " fill-opacity="1" fill-rule="nonzero"/><path fill="#2e2e2e" d="M 29.9375 25.605469 C 29.9375 25.773438 29.90625 25.933594 29.839844 26.089844 C 29.777344 26.246094 29.683594 26.382812 29.566406 26.5 C 29.445312 26.621094 29.308594 26.710938 29.152344 26.777344 C 28.996094 26.839844 28.835938 26.871094 28.667969 26.871094 C 28.5 26.871094 28.335938 26.839844 28.179688 26.777344 C 28.027344 26.710938 27.886719 26.621094 27.769531 26.5 C 27.648438 26.382812 27.558594 26.246094 27.492188 26.089844 C 27.429688 25.933594 27.398438 25.773438 27.398438 25.605469 C 27.398438 25.4375 27.429688 25.277344 27.492188 25.121094 C 27.558594 24.964844 27.648438 24.828125 27.769531 24.710938 C 27.886719 24.589844 28.027344 24.5 28.179688 24.4375 C 28.335938 24.371094 28.5 24.339844 28.667969 24.339844 C 28.835938 24.339844 28.996094 24.371094 29.152344 24.4375 C 29.308594 24.5 29.445312 24.589844 29.566406 24.710938 C 29.683594 24.828125 29.777344 24.964844 29.839844 25.121094 C 29.90625 25.277344 29.9375 25.4375 29.9375 25.605469 Z M 29.9375 25.605469 " fill-opacity="1" fill-rule="nonzero"/><path fill="#2e2e2e" d="M 29.9375 31.503906 C 29.9375 31.671875 29.90625 31.832031 29.839844 31.988281 C 29.777344 32.144531 29.683594 32.28125 29.566406 32.398438 C 29.445312 32.519531 29.308594 32.609375 29.152344 32.675781 C 28.996094 32.738281 28.835938 32.769531 28.667969 32.769531 C 28.5 32.769531 28.335938 32.738281 28.179688 32.675781 C 28.027344 32.609375 27.886719 32.519531 27.769531 32.398438 C 27.648438 32.28125 27.558594 32.144531 27.492188 31.988281 C 27.429688 31.832031 27.398438 31.671875 27.398438 31.503906 C 27.398438 31.335938 27.429688 31.175781 27.492188 31.019531 C 27.558594 30.863281 27.648438 30.726562 27.769531 30.609375 C 27.886719 30.488281 28.027344 30.398438 28.179688 30.335938 C 28.335938 30.269531 28.5 30.238281 28.667969 30.238281 C 28.835938 30.238281 28.996094 30.269531 29.152344 30.335938 C 29.308594 30.398438 29.445312 30.488281 29.566406 30.609375 C 29.683594 30.726562 29.777344 30.863281 29.839844 31.019531 C 29.90625 31.175781 29.9375 31.335938 29.9375 31.503906 Z M 29.9375 31.503906 " fill-opacity="1" fill-rule="nonzero"/></svg>